/* XPM */
static char * splashbox[] = {
"32 32 2 1",
" 	c white",
".	c black",
"                                ",
"                                ",
"                                ",
"      .....................     ",
"      .....................     ",
"      .....................     ",
"     .......................    ",
"     .......................    ",
"     ...... ......... ......    ",
"     ...... ......... ......    ",
"     ...... ......... ......    ",
"     ...... ......... ......    ",
"      ..... ......... .....     ",
"      ..... ......... .....     ",
"      ..... ......... .....     ",
"      .....................     ",
"      .....................     ",
"      .....................     ",
"      .....................     ",
"               ...              ",
"               ...              ",
"     .......................    ",
"            .........           ",
"         ...         ...        ",
"        .....       .....       ",
"       .......     .......      ",
"       .......     .......      ",
"       .......     .......      ",
"        .....       .....       ",
"         ...         ...        ",
"                                ",
"                                "};
